<svg width="30" height="18" viewBox="0 0 30 18" fill="none" xmlns="http://www.w3.org/2000/svg">
<path fill-rule="evenodd" clip-rule="evenodd" d="M9.00003 1.04999C6.59759 1.04999 4.65003 2.99755 4.65003 5.39999C4.65003 7.38344 5.97752 9.05684 7.79251 9.5802C6.35967 9.7548 5.13071 10.2616 4.20491 11.174C3.02662 12.3353 2.43005 14.064 2.43005 16.3199C2.43005 16.6347 2.68526 16.8899 3.00005 16.8899C3.31486 16.8899 3.57005 16.6347 3.57005 16.3199C3.57005 14.2559 4.11346 12.8647 5.00512 11.9859C5.89846 11.1055 7.23212 10.65 8.99997 10.65C10.7678 10.65 12.1016 11.1055 12.995 11.986C13.8865 12.8647 14.43 14.2559 14.43 16.3199C14.43 16.6347 14.6852 16.8899 15 16.8899C15.3148 16.89 15.57 16.6347 15.57 16.32C15.57 14.064 14.9734 12.3353 13.7951 11.174C12.8693 10.2616 11.6403 9.75482 10.2075 9.58021C12.0225 9.05687 13.35 7.38346 13.35 5.39999C13.35 2.99755 11.4025 1.04999 9.00003 1.04999ZM5.79003 5.39999C5.79003 3.62716 7.2272 2.18999 9.00003 2.18999C10.7729 2.18999 12.21 3.62716 12.21 5.39999C12.21 7.17282 10.7729 8.60999 9.00003 8.60999C7.2272 8.60999 5.79003 7.17282 5.79003 5.39999Z" fill="white"/>
<path fill-rule="evenodd" clip-rule="evenodd" d="M21 1.04999C18.5976 1.04999 16.65 2.99755 16.65 5.39999C16.65 7.38344 17.9775 9.05684 19.7925 9.5802C18.3597 9.7548 17.1307 10.2616 16.2049 11.174C15.0266 12.3353 14.4301 14.064 14.4301 16.3199C14.4301 16.6347 14.6853 16.8899 15.0001 16.8899C15.3149 16.8899 15.5701 16.6347 15.5701 16.3199C15.5701 14.2559 16.1135 12.8647 17.0051 11.9859C17.8985 11.1055 19.2321 10.65 21 10.65C22.7678 10.65 24.1016 11.1055 24.995 11.986C25.8865 12.8647 26.43 14.2559 26.43 16.3199C26.43 16.6347 26.6852 16.8899 27 16.8899C27.3148 16.89 27.57 16.6347 27.57 16.32C27.57 14.064 26.9734 12.3353 25.7951 11.174C24.8693 10.2616 23.6403 9.75482 22.2075 9.58021C24.0225 9.05687 25.35 7.38346 25.35 5.39999C25.35 2.99755 23.4025 1.04999 21 1.04999ZM17.79 5.39999C17.79 3.62716 19.2272 2.18999 21 2.18999C22.7729 2.18999 24.21 3.62716 24.21 5.39999C24.21 7.17282 22.7729 8.60999 21 8.60999C19.2272 8.60999 17.79 7.17282 17.79 5.39999Z" fill="white"/>
</svg>
